# xmcd CD database file
#
# Track frame offsets:
#	150
#	27125
#	43937
#	57700
#	71050
#	84250
#	96625
#	117212
#	136350
#	155750
#	182725
#	199550
#	213350
#	226750
#	240025
#	252400
#	272975
#	292100
#
# Disc length: 4147 seconds
#
# Revision: 8
# Processed by: cddbd v1.5.2PL0 Copyright (c) Steve Scherf et al.
# Submitted via: CDex 1.70beta3
#
DISCID=0c103112
DTITLE=マクロス・ジェネレーション - POCX1070_Legend Of Eternal Songs
DYEAR=1997
DGENRE=Pop
TTITLE0=桜井 智/愛・おぼえていますか
TTITLE1=桜井 智/天使の絵の具
TTITLE2=田村ゆかり/未来のDiary
TTITLE3=吉田小百合/0-G Love
TTITLE4=桜井 智/私の彼はパイロット
TTITLE5=桜井 智/シルバームーン・レッドムーン
TTITLE6=吉田小百合/愛は流れる
TTITLE7=緒方恵美/ランナー
TTITLE8=田村ゆかり/勇気をください
TTITLE9=愛・おぼえていますか (カラオケ)
TTITLE10=天使の絵の具 (カラオケ)
TTITLE11=未来のdiary (カラオケ)
TTITLE12=0-G Love (カラオケ)
TTITLE13=私の彼はパイロット (カラオケ)
TTITLE14=シルバームーン・レッドムーン (カラオケ)
TTITLE15=愛は流れる (カラオケ)
TTITLE16=ランナー (カラオケ)
TTITLE17=勇気をください (カラオケ)
EXTD=YEAR: 1997
EXTT0=
EXTT1=
EXTT2=
EXTT3=
EXTT4=
EXTT5=
EXTT6=
EXTT7=
EXTT8=
EXTT9=
EXTT10=
EXTT11=
EXTT12=
EXTT13=
EXTT14=
EXTT15=
EXTT16=
EXTT17=
PLAYORDER=
